<?xml version="1.0" standalone="no"?>
<!DOCTYPE svg PUBLIC "-//W3C//DTD SVG 20010904//EN"
 "http://www.w3.org/TR/2001/REC-SVG-20010904/DTD/svg10.dtd">
<svg version="1.0" xmlns="http://www.w3.org/2000/svg"
 width="512.000000pt" height="512.000000pt" viewBox="0 0 512.000000 512.000000"
 preserveAspectRatio="xMidYMid meet">
<metadata>
Created by potrace 1.11, written by Peter Selinger 2001-2013
</metadata>
<g transform="translate(0.000000,512.000000) scale(0.100000,-0.100000)"
fill="#000000" stroke="none">
<path d="M2860 4795 c-14 -8 -33 -14 -42 -15 -10 0 -18 -5 -18 -12 0 -6 -3 -9
-6 -5 -3 3 -27 -1 -52 -9 -26 -9 -56 -17 -67 -19 -26 -5 -302 -41 -376 -50
-31 -3 -67 -8 -80 -11 -13 -2 -40 -7 -59 -10 -19 -3 -36 -10 -38 -14 -2 -5
-10 -6 -18 -3 -8 3 -14 0 -14 -7 0 -6 -5 -8 -10 -5 -11 7 -197 -87 -227 -114
-10 -9 -38 -32 -63 -51 -24 -19 -60 -52 -80 -74 -43 -47 -119 -163 -126 -193
-4 -13 -10 -23 -15 -23 -5 0 -8 -3 -8 -7 3 -18 -1 -36 -7 -30 -3 3 -24 -5 -45
-19 -21 -13 -41 -24 -43 -24 -6 0 -169 -102 -176 -110 -12 -13 -100 -82 -100
-78 0 16 -222 -200 -298 -290 -20 -24 -49 -58 -65 -75 -15 -17 -27 -35 -27
-39 0 -3 -6 -13 -14 -21 -24 -24 -121 -177 -166 -262 -97 -184 -207 -495 -213
-602 0 -13 -3 -23 -7 -23 -3 0 -5 -12 -6 -27 0 -16 -5 -44 -9 -63 -9 -42 -16
-581 -7 -595 3 -5 8 -23 10 -40 5 -49 10 -80 12 -80 1 0 4 -18 6 -40 3 -21 9
-44 14 -50 6 -7 7 -14 4 -17 -2 -3 12 -57 32 -119 20 -62 37 -119 38 -126 1
-7 5 -16 9 -19 4 -4 7 -16 7 -26 0 -10 5 -18 11 -18 5 0 7 -4 4 -10 -3 -5 -1
-10 6 -10 7 0 10 -3 6 -6 -7 -8 80 -196 96 -206 7 -4 9 -8 5 -8 -13 0 132
-228 167 -263 8 -9 15 -20 15 -26 0 -5 8 -15 18 -20 9 -6 14 -11 10 -11 -13 0
187 -209 282 -293 65 -59 216 -168 300 -217 41 -25 77 -48 78 -52 2 -5 9 -8
15 -8 7 0 57 -22 111 -50 55 -27 103 -47 108 -44 4 3 8 0 8 -6 0 -6 5 -8 10
-5 6 3 10 1 10 -4 0 -6 6 -11 13 -11 8 0 74 -18 148 -41 74 -22 145 -42 159
-43 14 -2 32 -6 40 -9 93 -36 610 -44 805 -12 50 8 60 10 70 16 6 4 18 5 28 4
9 -2 17 0 17 3 0 4 17 8 38 10 20 1 39 7 40 12 2 6 8 8 12 5 5 -3 47 8 94 24
47 17 86 27 86 24 0 -3 7 1 17 8 9 8 17 13 17 11 2 -6 39 10 136 56 52 26 98
45 103 44 4 -1 7 3 7 9 0 5 4 8 9 5 5 -4 11 -3 13 2 1 4 33 25 71 47 37 22 67
43 67 48 0 4 4 6 9 3 5 -3 21 6 35 19 15 14 30 25 33 25 3 0 25 16 49 35 23
19 45 35 48 35 18 0 356 338 356 356 0 4 56 79 89 120 23 29 109 174 103 174
-4 0 -2 4 3 8 26 19 123 234 166 367 16 50 33 105 39 123 6 18 13 42 16 55 2
12 7 33 10 47 3 14 6 35 7 48 1 12 4 22 7 22 4 0 7 12 8 28 0 15 5 59 9 97 10
86 11 454 1 550 -7 66 -13 108 -24 165 -3 14 -6 31 -6 38 -1 6 -5 12 -10 12
-5 0 -6 5 -3 10 4 6 -8 56 -25 113 -18 56 -33 107 -35 112 -3 14 -15 44 -31
82 -8 17 -14 34 -14 37 0 3 -15 37 -34 76 -19 38 -31 70 -28 70 4 0 2 4 -3 8
-6 4 -17 21 -25 37 -23 48 -93 159 -105 167 -5 4 -6 8 -2 8 5 0 -14 29 -42 65
-28 36 -48 65 -44 65 5 0 0 5 -9 11 -10 5 -18 13 -18 18 0 23 -324 351 -348
351 -4 0 -22 14 -40 30 -18 17 -37 30 -43 30 -5 0 -9 4 -9 8 0 5 -12 15 -27
23 -16 8 -37 22 -47 32 -11 9 -26 17 -33 17 -7 0 -13 3 -13 8 0 4 -21 19 -47
32 -27 14 -50 28 -51 33 -2 4 -8 5 -13 1 -5 -3 -9 0 -9 5 0 6 -9 11 -19 11
-18 0 -38 33 -33 53 1 4 -3 7 -10 7 -6 0 -8 3 -5 7 8 8 -48 107 -83 147 -54
62 -78 84 -172 159 -54 43 -98 85 -98 93 0 9 5 24 10 35 19 34 22 89 6 95 -8
3 -47 -6 -86 -20 -39 -14 -73 -26 -75 -26 -2 0 -1 18 2 40 5 38 4 40 -21 40
-14 0 -26 -5 -26 -11 0 -5 -4 -7 -10 -4 -5 3 -10 1 -10 -5 0 -6 -4 -9 -8 -6
-5 3 -28 -6 -51 -20 l-44 -24 24 32 c44 59 18 97 -41 63z"/>
</g>
</svg>
